# xmcd
#
# Track frame offsets:
#	150
#	12915
#	26535
#	42322
#	55017
#	67390
#	79485
#	92092
#	102452
#	113840
#	125732
#	137695
#	149467
#	162322
#	174002
#	186900
#	196432
#	210125
#
# Disc length: 2957
#
# Revision: 2
# Processed by: cddbd v1.5.1PL0 Copyright (c) Steve Scherf et al.
# Submitted via: xmcd 2.1 PL1
# Normalized: r1:TDELIM( - )
#
DISCID=020b8b12
DTITLE=Various Artist - Blues Masters - Vol 5: Jump Blues Classics
DYEAR=1900
DGENRE=
TTITLE0=Red Prysock - Hand Clappin'
TTITLE1=Joe Turner - Shake, Rattle, And Roll
TTITLE2=Louis Prima - Jum, Jive, An' Wail
TTITLE3=Wynonie Harris - Good Rockin' Tonight
TTITLE4=Roy Brown - Rockin' At Midnight
TTITLE5=Little Johnny Jones - Hoy Hoy
TTITLE6=Tiny Bradshaw - The Train Kept A-Rollin'
TTITLE7=Rudy Greene - Juicy Fruit
TTITLE8=Jackie Brenston and His Delta Cats - In My Real Gone Rocket
TTITLE9=Jimmy Liggins - Cadillac Boogie
TTITLE10=Ann Cole - Got My Mo-Jo Working
TTITLE11=Roy Milton - Hop, Skip, And Jump
TTITLE12=Big Jay McNeely and Band - Deacon's Hop
TTITLE13=Clarence Brown - Rock My Blues Away
TTITLE14=Willie Mae "Big Mama" Thornton - Hound Dog
TTITLE15=Wynona Carr - 'Til The Well Runs Dry
TTITLE16=Bullmoose Jackson and His Buffalo Bearcats - Why Don't You Haul Off And Love Me
TTITLE17=Ruth Brown - Hello Little Boy
EXTD=
EXTT0=
EXTT1=
EXTT2=
EXTT3=
EXTT4=
EXTT5=
EXTT6=
EXTT7=
EXTT8=
EXTT9=
EXTT10=
EXTT11=
EXTT12=
EXTT13=
EXTT14=
EXTT15=
EXTT16=
EXTT17=
PLAYORDER=
